<svg xmlns="http://www.w3.org/2000/svg" width="1979" height="1115" fill="none" viewBox="0 0 1979 1115"><g filter="url(#a)"><path fill="url(#b)" d="M1236.22 480.264 900.937 687.556l24.076-357.005z"/><path fill="url(#c)" d="m1027.88 637.43-124.154 52.222 334.624-207.273z"/><path fill="url(#d)" d="m1033.21 352.363-104.969-21.312 312.239 148.127z"/><path fill="url(#e)" d="m211.084 567.251 149.069-16.7-5.502 58.843-148.626 16.65zm-9.232 173.473-72.102 8.078 27.24-316.578 233.999-26.214-5.501 58.843-161.897 18.136z"/><path fill="url(#f)" d="m412.141 717.166 26.985-313.609 71.425-8.002-26.985 313.61z"/><path fill="url(#g)" d="m555.923 701.059 26.985-313.609 58.718-6.578 156.785 207.389-23.372 1.287 19.079-225.759 70.111-7.855-26.985 313.61-58.28 6.529-157.223-207.341 23.81-1.336-19.517 225.809z"/><mask id="h" width="413" height="355" x="1374" y="286" maskUnits="userSpaceOnUse" style="mask-type:alpha"><path fill="#fff" d="m1374.75 640.03 31.42-316.189 72.21-7.123-31.43 316.19zM1584.32 619.356l25.24-256.539-99.23 9.788 6.2-59.65 270.2-26.655-6.19 59.65-98.78 9.745-25.68 256.582z"/></mask><g mask="url(#h)"><circle cx="1515.95" cy="407.247" r="319.169" fill="#fec437"/></g><path fill="url(#i)" d="M1255.93 485.041c764.62 239.246 976.69-85.251 176.9-205.14 157.72 43.692 815.77 297.856-176.9 205.14"/><path fill="url(#j)" d="M1242.6 487.72c58.09 303.717-814.17 501.921-1203.14 229.109C122.578 1042.39 1502.09 1101.01 1242.6 487.72"/><path fill="#fec437" d="m1596.41 504.758 13.97-141.946-99.23 9.788 6.2-59.65 270.2-26.656-6.19 59.651-98.78 9.744-15.3 149.068z"/><path fill="url(#k)" d="M1245.8 479.185c106.57-261.887-594.637-366.593-771.01-153.457 25.047-330.893 983.09-309.31 771.01 153.457"/></g><defs><linearGradient id="b" x1="1355.59" x2="653.325" y1="576.172" y2="636.002" gradientUnits="userSpaceOnUse"><stop offset=".24" stop-color="#f1f1f1"/><stop offset=".981" stop-color="#0037a1"/></linearGradient><linearGradient id="c" x1="1071.04" x2="903.726" y1="482.379" y2="678.458" gradientUnits="userSpaceOnUse"><stop stop-color="#d9d9d9"/><stop offset="1" stop-color="#5174b6"/></linearGradient><linearGradient id="d" x1="1249" x2="957.01" y1="453.602" y2="296.415" gradientUnits="userSpaceOnUse"><stop stop-color="#d9d9d9"/><stop offset="1" stop-color="#5b7bb9"/></linearGradient><linearGradient id="e" x1="-145.035" x2="905.049" y1="601.49" y2="546.531" gradientUnits="userSpaceOnUse"><stop stop-color="#fff"/><stop offset="1" stop-color="#5e7ebc"/></linearGradient><linearGradient id="f" x1="-145.035" x2="905.049" y1="601.49" y2="546.531" gradientUnits="userSpaceOnUse"><stop stop-color="#fff"/><stop offset="1" stop-color="#5e7ebc"/></linearGradient><linearGradient id="g" x1="-145.035" x2="1005" y1="601.49" y2="529.222" gradientUnits="userSpaceOnUse"><stop stop-color="#fff"/><stop offset="1" stop-color="#5e7ebc"/></linearGradient><linearGradient id="i" x1="1580.03" x2="1829.23" y1="570.259" y2="398.561" gradientUnits="userSpaceOnUse"><stop stop-color="#f1f1f1"/><stop offset="1" stop-color="#6885bc"/></linearGradient><linearGradient id="j" x1="1140.51" x2="16.548" y1="555.317" y2="693.917" gradientUnits="userSpaceOnUse"><stop stop-color="#f1f1f1"/><stop offset=".827" stop-color="#fec437"/></linearGradient><linearGradient id="k" x1="1216.46" x2="493.968" y1="342.404" y2="275.641" gradientUnits="userSpaceOnUse"><stop stop-color="#f1f1f1"/><stop offset=".629" stop-color="#eeff59"/></linearGradient><filter id="a" width="1945.53" height="901.088" x="32.96" y="82.7" color-interpolation-filters="sRGB" filterUnits="userSpaceOnUse"><feFlood flood-opacity="0" result="BackgroundImageFix"/><feColorMatrix in="SourceAlpha" result="hardAlpha" values="0 0 0 0 0 0 0 0 0 0 0 0 0 0 0 0 0 0 127 0"/><feOffset dx="16" dy="4"/><feGaussianBlur stdDeviation="11.25"/><feComposite in2="hardAlpha" operator="out"/><feColorMatrix values="0 0 0 0 0.272374 0 0 0 0 0.340211 0 0 0 0 0.472115 0 0 0 1 0"/><feBlend in2="BackgroundImageFix" result="effect1_dropShadow_26_3"/><feBlend in="SourceGraphic" in2="effect1_dropShadow_26_3" result="shape"/></filter></defs></svg>